HIERARCHY
ROOT Hips
{
	OFFSET	0	0	0
	CHANNELS 6  Xposition Yposition Zposition Xrotation Yrotation Zrotation
	JOINT Spine
	{
		OFFSET	0	6.96713	1.39842
		CHANNELS 3  Xrotation Yrotation Zrotation
		JOINT Spine1
		{
			OFFSET	0	11.9256	-2.12957
			CHANNELS 3  Xrotation Yrotation Zrotation
			JOINT Spine2
			{
				OFFSET	0	9.04001	0.968953
				CHANNELS 3  Xrotation Yrotation Zrotation
				JOINT Spine3
				{
					OFFSET	0	10.8182	3.21564
					CHANNELS 3  Xrotation Yrotation Zrotation
					JOINT Spine4
					{
						OFFSET	0	16.0143	-1.63977
						CHANNELS 3  Xrotation Yrotation Zrotation
						JOINT Neck
						{
							OFFSET	0	7.64514	-5.35586
							CHANNELS 3  Xrotation Yrotation Zrotation
							JOINT Head
							{
								OFFSET	0	9.17843	-2.74714
								CHANNELS 3  Xrotation Yrotation Zrotation
								End Site
								{
									OFFSET	0	19.1448	-0.926361
								}
							}
						}
					}
					JOINT LeftShoulder
					{
						OFFSET	-4.59986	19.4642	-9.17843
						CHANNELS 3  Xrotation Yrotation Zrotation
						JOINT LeftArm
						{
							OFFSET	-10.0419	-2.74714	3.52445
							CHANNELS 3  Xrotation Yrotation Zrotation
							JOINT LeftForeArm
							{
								OFFSET	-34.0852	-1.5557	2.43296
								CHANNELS 3  Xrotation Yrotation Zrotation
								JOINT LeftHand
								{
									OFFSET	-26.9831	-1.86468	1.92602
									CHANNELS 3  Xrotation Yrotation Zrotation
									End Site
									{
										OFFSET	-9.84747	-0.680518	0.702856
									}
								}
							}
						}
					}
					JOINT RightShoulder
					{
						OFFSET	4.59986	19.4642	-9.17843
						CHANNELS 3  Xrotation Yrotation Zrotation
						JOINT RightArm
						{
							OFFSET	10.0419	-2.74714	3.52445
							CHANNELS 3  Xrotation Yrotation Zrotation
							JOINT RightForeArm
							{
								OFFSET	34.0852	-1.5557	2.43296
								CHANNELS 3  Xrotation Yrotation Zrotation
								JOINT RightHand
								{
									OFFSET	26.9831	-1.86468	1.92602
									CHANNELS 3  Xrotation Yrotation Zrotation
									End Site
									{
										OFFSET	9.84747	-0.680518	0.702856
									}
								}
							}
						}
					}
				}
			}
		}
	}
	JOINT LeftUpLeg
	{
		OFFSET	-9.46819	-3.48356	-0.699207
		CHANNELS 3  Xrotation Yrotation Zrotation
		JOINT LeftLeg
		{
			OFFSET	-2.2061	-43.2277	-0.675743
			CHANNELS 3  Xrotation Yrotation Zrotation
			JOINT LeftFoot
			{
				OFFSET	-2.15297	-39.6861	3.413
				CHANNELS 3  Xrotation Yrotation Zrotation
				JOINT LeftToeBase
				{
					OFFSET	0	-4.93976	-13.12
					CHANNELS 3  Xrotation Yrotation Zrotation
					End Site
					{
						OFFSET	0	-1.97591	-7.90362
					}
				}
			}
		}
	}
	JOINT RightUpLeg
	{
		OFFSET	9.46819	-3.48356	-0.699207
		CHANNELS 3  Xrotation Yrotation Zrotation
		JOINT RightLeg
		{
			OFFSET	2.2061	-43.2277	-0.675743
			CHANNELS 3  Xrotation Yrotation Zrotation
			JOINT RightFoot
			{
				OFFSET	2.15297	-39.6861	3.413
				CHANNELS 3  Xrotation Yrotation Zrotation
				JOINT RightToeBase
				{
					OFFSET	0	-4.93976	-13.12
					CHANNELS 3  Xrotation Yrotation Zrotation
					End Site
					{
						OFFSET	0	-1.97591	-7.90362
					}
				}
			}
		}
	}
}
MOTION
Frames: 17
Frame Time: 0.020409
 0 -9.22836 2.93546 -0 0 -0 -0 0 -0 -0 0 -0 -0 0 -0 -0 0 -0 -0 0 -0 -0 0 -0 -0 0 -0 -0 0 -0 -0 0 -0 -0 0 -0 -0 0 -0 -0 0 -0 -0 0 -0 -0 0 -0 -0 0 -0 -0 0 -0 -0 0 -0 -0 0 -0 -0 0 -0 -0 0 -0 -0 0 -0 -0 0 -0 -0 0 -0
 -46.1273 95.1241 -12.8187 120.852 -81.694 120.092 0.000546081 -0.0087984 3.55156 178.979 -179.982 -174.081 179.179 -179.947 -174.081 179.909 -179.991 -176.448 178.283 -179.965 -178.817 176.083 178.173 179.056 178.817 175.881 -179.912 0.216816 -17.0742 0.463289 159.181 -169.446 -119.206 75.4741 -11.4522 32.174 -0 -39.3518 27.274 169.757 176.768 -159.061 5.03882 -1.13017 -17.6755 91.6724 178.444 -83.7588 -0 -66.1739 46.4829 171.925 172.404 -172.45 0.314433 11.0941 -0.256057 163.528 179.998 178.938 0.200776 0 0 15.0139 12.658 -2.95557 159.623 172.579 179.855 156.939 179.954 168.519 175.52 180 -180
 -46.3026 95.0948 -12.3831 122.653 -81.0534 122.149 0.00144388 -0.0225448 3.6645 178.827 -179.955 -173.893 179.021 -179.865 -173.892 179.769 -179.977 -176.335 178.317 -179.964 -178.779 176.339 177.583 179.313 178.89 175.081 -179.774 0.116663 -18.0482 0.250018 158.031 -168.6 -118.845 75.9875 -11.6982 33.7061 -0 -39.8806 27.115 169.798 174.528 -158.812 1.79606 2.00515 -18.8383 91.5579 179.437 -78.8956 -0 -65.9319 47.6206 172.478 172.324 -173.151 178.601 168.827 179.807 164.235 179.994 178.907 0.204708 0 0 14.719 12.2653 -3.50612 159.605 172.102 -179.963 156.897 179.964 168.532 175.518 180 -180
 -46.3786 95.2545 -12.1794 125.01 -80.311 124.646 0.00176454 -0.0271846 3.71384 178.681 -179.946 -173.81 178.879 -179.838 -173.81 179.677 -179.973 -176.286 178.257 -179.962 -178.763 176.317 177.108 179.325 178.879 174.252 -179.699 179.937 -161.194 179.864 156.713 -167.904 -118.513 76.4956 -11.9437 34.8688 -0 -40.4257 26.9468 169.98 172.556 -158.95 179.084 175.262 159.965 91.961 -179.73 -73.9366 -0 -65.7897 48.7192 173.003 172.19 -173.63 176.598 168.751 -179.979 164.172 179.995 178.96 0.20723 0 0 14.5498 12.1378 -3.85945 159.297 171.619 -179.878 156.978 179.989 168.527 175.516 180 -180
 -46.4915 95.4881 -12.1041 125.654 -79.8943 125.413 0.00109869 -0.0167656 3.74936 178.507 -179.967 -173.751 178.705 -179.9 -173.751 179.577 -179.983 -176.251 178.161 -179.96 -178.751 176.222 176.527 179.359 178.843 173.254 -179.601 179.906 -160.419 179.798 154.963 -166.954 -117.857 76.8439 -12.0991 36.051 -0 -40.9061 26.8506 170.501 170.268 -159.846 176.962 172.669 158.371 92.1059 -179.402 -69.3247 -0 -65.8314 49.3008 173.419 172.161 -173.832 174.822 168.701 -179.979 163.742 -179.994 179.161 0.208736 0 0 14.7573 12.2256 -4.28318 158.705 171.143 -179.904 157.103 -179.985 168.543 175.515 180 -180
 -47.0413 95.6905 -11.8688 128.239 -79.4858 128.332 0.00113233 -0.0172273 3.76059 178.367 -179.966 -173.732 178.572 -179.897 -173.732 179.501 -179.983 -176.239 178.076 -179.958 -178.747 176.128 175.936 179.341 178.807 172.187 -179.511 179.728 -159.35 179.414 153.301 -165.903 -117.76 77.2257 -12.403 37.5703 -0 -41.4095 26.9147 171.255 168.105 -161.32 176.233 171.225 156.753 92.2987 -179.678 -65.6397 -0 -66.0415 49.2532 174.471 172.435 -174.385 173.272 168.553 179.931 163.206 179.99 179.353 0.209979 0 0 15.3779 12.2251 -4.96681 158.593 170.591 -179.979 156.874 -179.971 168.547 175.512 180 -180
 -47.2324 95.82 -11.8551 128.051 -79.4888 128.42 0.00154946 -0.0235798 3.75959 178.252 -179.953 -173.734 178.46 -179.859 -173.734 179.427 -179.976 -176.24 178.029 -179.957 -178.748 176.117 175.728 178.937 178.798 171.441 -179.56 179.678 -158.323 179.305 151.766 -164.784 -117.817 77.5079 -12.7549 38.7724 -0 -41.8478 27.0875 172.11 165.958 -163.059 175.983 169.968 155.085 92.0354 179.99 -61.7958 -0 -66.3763 49.0108 175.157 172.504 -174.828 172.152 168.333 -179.951 163.168 179.989 179.635 0.211058 0 0 15.665 12.2443 -5.41788 158.458 169.918 179.991 157.136 -179.948 168.54 175.509 180 -180
 -47.4754 95.9308 -11.7899 128.74 -79.389 129.283 0.000844922 -0.0128489 3.76225 178.138 -179.974 -173.73 178.324 -179.923 -173.73 179.299 -179.987 -176.238 178.115 -179.959 -178.747 176.477 175.586 178.554 178.903 170.841 -179.626 179.553 -157.739 179.032 149.966 -163.807 -117.654 77.6082 -13.0417 39.7807 -0 -42.3057 27.4006 172.949 164.563 -164.831 175.513 169.717 153.513 91.99 179.758 -58.2329 -0 -66.9127 49.1236 175.766 172.536 -175.134 171.028 168.145 -179.872 162.925 -179.997 179.998 0.211659 0 0 16.021 12.3423 -5.83509 158.25 169.042 179.903 157.123 -179.967 168.529 175.505 180 -180
 -47.3681 96.0963 -11.7599 127.645 -79.4794 128.408 0.000307207 -0.00465571 3.77519 178.047 -179.991 -173.708 178.221 -179.972 -173.708 179.212 -179.995 -176.225 178.149 -179.959 -178.742 176.653 175.774 178.086 178.957 170.732 -179.754 179.519 -157.258 178.959 148.541 -162.944 -117.68 77.647 -13.297 40.5356 -0 -42.772 27.7511 174.138 162.626 -167.36 133.126 147.509 174.669 1.45518 69.2784 -9.5631 -0 -0.296383 -46.9416 175.962 172.483 -175.462 170.036 167.934 -179.833 162.642 -179.983 -179.509 0.212022 0 0 15.7906 12.3084 -5.93327 157.878 168.105 179.839 157.029 -179.96 168.545 175.5 180 -180
 -47.7028 95.7497 -11.6357 129.995 -78.7126 130.781 0.000239966 -0.00359457 3.81927 177.916 -179.993 -173.635 178.041 -179.979 -173.635 178.98 -179.996 -176.181 178.441 -179.965 -178.727 177.62 175.731 178.047 179.25 170.631 -179.784 179.417 -156.801 178.737 147.633 -162.186 -117.995 77.785 -13.6269 41.5308 -0 -43.2174 28.1182 175.542 162.727 -170.424 131.934 147.798 172.894 0.686018 67.8162 0.127848 -0 -0.521957 -47.1071 176.08 172.5 -175.533 169.239 167.704 -179.712 164.544 179.992 -179.066 0.21712 0 0 16.0886 12.3188 -6.12468 157.332 167.222 179.873 157.084 179.986 168.528 175.496 180 -180
 -47.8217 95.6496 -11.4936 129.668 -78.8546 130.53 180 179.996 -176.14 177.829 179.992 -173.566 177.912 179.977 -173.566 178.808 179.996 -176.14 178.683 -179.97 -178.714 178.382 176.052 177.585 179.484 170.735 -179.948 179.361 -156.9 178.616 146.692 -161.574 -118.167 77.748 -13.9202 42.2861 -0 -43.5195 28.5129 176.723 162.734 -172.975 132.122 149.049 171.858 179.221 114.059 -177.569 -0 -1.01388 -47.0748 176.102 172.501 -175.533 169.016 167.596 -179.773 164.976 -179.994 -178.606 0.220025 0 0 16.1399 12.1402 -6.16974 157.073 166.508 179.956 157.248 -179.999 168.533 175.492 180 -180
 -47.8527 95.5759 -11.3053 127.294 -79.4675 128.261 179.999 179.99 -176.112 177.75 179.98 -173.52 177.799 179.94 -173.52 178.663 179.99 -176.112 178.873 -179.975 -178.704 178.975 176.616 176.976 179.672 171.086 179.829 179.41 -157.084 178.723 146.376 -161.093 -118.779 77.6887 -14.2178 42.9352 -0 -43.7881 28.9434 178.474 162.262 -176.731 132.832 150.269 170.7 177.099 117.297 -175.821 -0 -1.77469 -46.7224 176.138 172.486 -175.773 169.419 167.499 -179.803 165.218 -179.967 -178.101 0.222455 0 0 16.1726 11.6233 -6.21401 156.755 166.098 179.944 157.131 -179.975 168.545 175.49 180 -180
 -47.7388 95.6281 -11.1889 124.038 -80.1146 125.027 179.999 179.986 -176.091 177.695 179.972 -173.486 177.725 179.915 -173.486 178.573 179.986 -176.091 178.98 -179.977 -178.697 179.306 177.14 176.478 179.78 171.463 179.644 179.385 -157.172 178.668 146.331 -160.709 -119.448 77.6807 -14.5077 43.4932 -0 -44.049 29.3207 179.859 161.694 -179.698 133.594 151.266 169.741 175.457 120.199 -174.388 -0 -2.51576 -46.1547 176.213 172.447 -175.947 169.871 167.384 -179.847 164.766 -179.943 -177.68 0.223913 0 0 16.2626 11.0906 -6.21025 156.806 165.743 179.937 157.096 -179.995 168.534 175.49 180 -180
 -47.8219 95.7252 -11.1486 121.867 -80.6031 122.925 179.999 179.987 -176.076 177.633 179.974 -173.461 177.65 179.922 -173.461 178.493 179.987 -176.076 179.05 -179.978 -178.692 179.542 177.593 175.978 179.86 171.708 179.47 179.351 -157.447 178.596 146.269 -160.314 -119.937 77.5599 -14.7566 43.883 -0 -44.252 29.7158 0.897852 18.7906 -1.92847 133.641 152.161 168.497 174.062 123.026 -173.361 -0 -3.27997 -45.4867 176.42 172.38 -176.034 170.228 167.121 -179.993 164.184 -179.925 -177.321 0.224742 0 0 16.5404 10.6876 -6.3854 156.854 165.327 179.927 157.045 179.961 168.524 175.489 180 -180
 -48.3538 95.7285 -10.8331 114.851 -81.5191 115.92 179.999 179.991 -176.09 177.553 179.982 -173.483 177.561 179.947 -173.483 178.406 179.991 -176.09 179.099 -179.98 -178.697 179.751 177.787 175.932 179.926 171.977 179.429 179.376 -157.852 178.65 146.728 -160.19 -121.112 77.3603 -15.1567 44.321 -0 -44.49 30.3444 1.4356 19.8682 -3.0926 134.427 152.109 166.747 172.606 126.27 -172.235 -0 -4.18451 -44.33 177.088 172.548 -176.323 170.76 166.805 179.909 163.661 -179.936 -177.127 0.225626 0 0 17.04 10.4607 -6.48191 156.905 164.738 179.994 156.816 179.995 168.53 175.488 180 -180
 -48.3406 95.7772 -10.86 108.699 -82.3303 109.862 179.999 179.99 -176.163 177.502 179.979 -173.605 177.499 179.938 -173.605 178.339 179.99 -176.163 179.16 -179.981 -178.721 179.956 178.158 175.75 179.993 172.401 179.336 179.382 -157.982 178.663 147.22 -159.855 -122.003 76.8491 -15.3735 44.3054 -0 -44.6129 30.9674 1.46754 21.0106 -3.16915 135.58 151.851 164.461 171.219 129.945 -171.436 -0 -5.23034 -42.887 177.613 172.626 -176.576 171.134 166.446 179.875 163.404 -179.978 -177.109 0.226561 0 0 17.4379 10.2683 -6.34886 156.753 164.121 179.922 157.058 -179.974 168.531 175.489 180 -180
 -48.4294 95.8067 -11.0411 105.088 -82.6884 106.204 179.999 179.98 -176.281 177.427 179.96 -173.802 177.401 179.88 -173.802 178.236 179.98 -176.281 179.262 -179.984 -178.761 0.271104 1.03294 -4.90322 0.101672 6.94484 -0.916964 179.536 -158.548 178.998 147.722 -159.604 -122.265 76.4249 -15.7203 43.6276 -0 -44.6953 31.5112 1.47909 22.1291 -3.20047 136.688 151.622 161.954 169.698 134.166 -170.735 -0 -6.53593 -40.9967 177.986 172.678 -176.361 171.065 166.025 179.775 163.313 -179.987 -177.35 0.227258 0 0 17.9248 10.1321 -6.0023 156.213 163.431 179.757 157.206 -179.973 168.527 175.493 180 -180
